<svg width="100" height="100" viewBox="0 0 100 100" fill="none" xmlns="http://www.w3.org/2000/svg">
<g clip-path="url(#clip0)">
<path d="M59.2864 73.5984C56.7507 71.0835 53.5707 71.0835 51.0351 73.5984C49.1021 75.5106 47.1692 77.4227 45.2778 79.3764C44.7582 79.9168 44.3218 80.0207 43.6775 79.6674C42.4304 78.9815 41.1002 78.4411 39.8947 77.6929C34.3038 74.1804 29.6066 69.6494 25.4497 64.5365C23.3921 62.0009 21.5423 59.2989 20.2745 56.2436C20.0251 55.6201 20.0458 55.2252 20.5654 54.7264C22.4984 52.8558 24.3897 50.9437 26.2811 49.0315C28.9207 46.3711 28.9207 43.2535 26.2603 40.5723C24.7639 39.0551 23.2466 37.5379 21.7294 36.0414C20.1705 34.4826 18.6325 32.9238 17.0529 31.365C14.4965 28.8708 11.3373 28.8501 8.78081 31.365C6.84788 33.2771 4.95652 35.2516 3.00281 37.1222C1.1738 38.868 0.238513 40.988 0.051455 43.4821C-0.239524 47.5143 0.737333 51.3386 2.12987 55.0589C4.99809 62.7491 9.34199 69.5663 14.6004 75.8431C21.7086 84.3231 30.2301 91.0156 40.1857 95.8583C44.6543 98.0406 49.31 99.7034 54.3605 99.9736C57.8315 100.161 60.866 99.2877 63.277 96.5857C64.9397 94.736 66.7895 93.0524 68.5561 91.2858C71.1542 88.667 71.1749 85.487 68.5977 82.889C65.4801 79.7713 62.3832 76.6953 59.2864 73.5984Z" fill="#545D49"/>
<path d="M90.7744 9.22989C78.4701 -3.07435 58.5381 -3.07435 46.2339 9.22989C34.3869 21.0769 33.9504 39.9905 44.9037 52.3571L45.2155 52.6273C44.0308 55.2045 41.9731 58.3637 38.7308 59.9641C37.65 60.4837 37.8994 62.0841 39.0841 62.2711C42.6382 62.8323 47.7303 62.2088 52.4691 58.6131L52.5315 58.6755C64.6071 65.7837 80.3823 64.1417 90.7536 53.7704C103.079 41.4662 103.079 21.5341 90.7744 9.22989ZM69.8447 12.0565C72.6714 12.0773 74.9368 14.3844 74.9161 17.2526C74.8953 20.1 72.5882 22.4071 69.8239 22.3863C66.9557 22.3655 64.6487 20.0169 64.6695 17.1695C64.6902 14.322 66.9973 12.0358 69.8447 12.0565ZM77.14 46.6622C77.036 47.0987 76.7451 47.5559 76.4333 47.8885C74.5627 49.7798 72.3388 50.9022 69.6577 50.9438C68.4106 50.9645 67.1428 50.923 65.9165 50.7359C63.8589 50.4449 61.2609 47.9093 61.635 45.1865C61.8844 43.3367 62.1754 41.487 62.4871 39.6372C63.0275 36.4364 63.6095 33.2148 64.1706 30.0141C64.2122 29.8062 64.2122 29.5984 64.2122 29.3906C64.2122 28.0396 63.7965 27.5823 62.4663 27.3953C61.9052 27.3121 61.3024 27.2706 60.7828 27.0835C60.1177 26.8549 59.8267 26.3353 59.8891 25.7949C59.9514 25.2337 60.3048 24.8804 61.0322 24.7349C61.4063 24.6518 61.8012 24.6518 62.1961 24.6518C63.7757 24.6518 65.3346 24.6518 66.9141 24.6518C68.5769 24.6518 70.2396 24.6518 71.9231 24.6518C73.1286 24.6518 73.8353 25.2129 73.8769 26.4184C73.8976 27.4161 73.7314 28.4137 73.5443 29.4113C72.9 33.0694 72.2141 36.7274 71.549 40.4062C71.3204 41.6117 71.071 42.8379 70.9463 44.0434C70.8839 44.6254 70.9671 45.2489 71.1126 45.8101C71.2996 46.5791 71.8816 46.9948 72.6506 46.9116C73.2949 46.8285 73.9392 46.5999 74.5627 46.3712C75.0615 46.1842 75.498 45.8308 76.0176 45.6438C76.7035 45.3736 77.327 45.8932 77.14 46.6622Z" fill="#545D49"/>
</g>
<defs>
<clipPath id="clip0">
<rect width="100" height="100" fill="white"/>
</clipPath>
</defs>
</svg>
