<svg width="100" height="100" viewBox="0 0 100 100" fill="none" xmlns="http://www.w3.org/2000/svg">
<g clip-path="url(#clip0)">
<path d="M99.6859 44.4483C99.5281 43.0428 97.8886 41.9854 96.471 41.9854C91.8895 41.9854 87.8234 39.2963 86.1182 35.1343C84.3776 30.8724 85.5007 25.9029 88.9141 22.7715C89.9892 21.7885 90.1203 20.1425 89.219 18.9999C86.8733 16.022 84.2085 13.3316 81.298 11.0002C80.1593 10.0869 78.4861 10.214 77.4979 11.3077C74.5178 14.6083 69.1643 15.8347 65.0274 14.1088C60.7239 12.298 58.0076 7.93578 58.2745 3.25349C58.3623 1.78181 57.2863 0.503013 55.8198 0.332189C52.0846 -0.100275 48.3165 -0.112816 44.5705 0.302782C43.1227 0.462793 42.0475 1.71132 42.0955 3.1644C42.2577 7.80085 39.5107 12.0861 35.2488 13.832C31.1616 15.5017 25.8453 14.2844 22.8712 11.0128C21.8882 9.93506 20.2444 9.80272 19.098 10.6966C16.1019 13.0479 13.3769 15.74 11.0096 18.6938C10.0871 19.8419 10.2234 21.5061 11.3076 22.4925C14.7885 25.6448 15.9107 30.657 14.1034 34.9687C12.3779 39.0793 8.10992 41.7272 3.22437 41.7272C1.63896 41.6762 0.510657 42.7414 0.335509 44.1832C-0.103875 47.9383 -0.108632 51.7665 0.314318 55.5522C0.472167 56.9638 2.16007 58.0121 3.59326 58.0121C7.94818 57.9014 12.1266 60.5956 13.882 64.8628C15.6287 69.1247 14.5043 74.092 11.0853 77.2278C10.0158 78.2108 9.87913 79.8528 10.7821 80.9941C13.104 83.9535 15.7715 86.6456 18.6906 88.9969C19.8366 89.9198 21.5033 89.7904 22.4967 88.6954C25.4885 85.3871 30.8411 84.1628 34.9612 85.8922C39.2772 87.6982 41.9922 92.06 41.7271 96.7436C41.6402 98.2153 42.7187 99.498 44.18 99.6649C46.0915 99.8885 48.013 99.9992 49.9404 99.9992C51.7698 99.9992 53.5995 99.8993 55.4293 99.6956C56.8789 99.5356 57.9523 98.2858 57.9034 96.8323C57.736 92.198 60.4891 87.9123 64.7459 86.1699C68.8603 84.4893 74.1528 85.7192 77.1286 88.9861C78.1168 90.0616 79.7506 90.1922 80.9019 89.3018C83.8928 86.9565 86.6125 84.2657 88.9902 81.3042C89.9135 80.1582 89.7825 78.4919 88.6923 77.5037C85.2122 74.3536 84.0839 69.3392 85.8912 65.0319C87.5899 60.9767 91.6992 58.2539 96.119 58.2539L96.7374 58.2703C98.1723 58.3866 99.4909 57.2817 99.6643 55.8178C100.106 52.0592 100.111 48.2354 99.6859 44.4483ZM50.0006 78.8249C34.0803 78.8249 21.1751 65.9197 21.1751 49.9998C21.1751 34.08 34.0807 21.1748 50.0006 21.1748C65.9204 21.1748 78.826 34.08 78.826 49.9998C78.826 55.4035 77.3362 60.4577 74.7487 64.7797L62.1269 52.1574C63.0407 50.0029 63.5233 47.6671 63.5229 45.2566C63.5229 40.5362 61.6844 36.0987 58.3463 32.7614C55.0089 29.4241 50.5714 27.5861 45.8519 27.5861C44.2769 27.5861 42.7092 27.7954 41.1926 28.2084C40.5283 28.3896 39.9851 28.9371 39.8082 29.6027C39.6275 30.2834 39.8312 30.9809 40.3631 31.5133C40.3631 31.5133 46.5945 37.7927 48.6794 39.8772C48.8978 40.0955 48.8973 40.6167 48.8666 40.8044L48.8472 40.9414C48.637 43.2335 48.2318 45.9848 47.8975 47.0422C47.8525 47.0868 47.8101 47.1244 47.7643 47.1702C47.7163 47.2182 47.6722 47.2645 47.6259 47.3121C46.5547 47.6559 43.761 48.0659 41.4326 48.2743L41.433 48.2618L41.3284 48.2881C41.3098 48.2903 41.2752 48.2929 41.2293 48.2929C40.9776 48.2929 40.6074 48.2224 40.271 47.8864C38.1009 45.7163 32.1138 39.7721 32.1138 39.7721C31.5767 39.2367 31.0258 39.1242 30.6586 39.1242C29.8028 39.1242 29.0364 39.7427 28.7951 40.6296C27.147 46.7287 28.8941 53.2892 33.3559 57.7513C36.6941 61.0891 41.132 62.9271 45.8524 62.9271C48.2629 62.9271 50.5987 62.4449 52.7528 61.5311L65.5117 74.2901C61.0323 77.1564 55.713 78.8249 50.0006 78.8249Z" fill="#545D49"/>
</g>
<defs>
<clipPath id="clip0">
<rect width="100" height="100" fill="white"/>
</clipPath>
</defs>
</svg>
