<svg width="100" height="100" viewBox="0 0 100 100" fill="none" xmlns="http://www.w3.org/2000/svg">
<g clip-path="url(#clip0)">
<path d="M49.7915 0C28.797 0 11.7153 17.1532 11.7153 38.2355V73.5291C11.7153 78.3951 15.657 82.3532 20.502 82.3532C25.3477 82.3532 29.2894 78.3951 29.2894 73.5291V44.1177C29.2894 39.2525 25.3477 35.2943 20.502 35.2943C19.5158 35.2943 18.5828 35.495 17.6962 35.7971C18.946 19.0956 32.8481 5.88226 49.7915 5.88226C66.7258 5.88226 80.6241 19.0834 81.8853 35.7735C81.004 35.4706 80.0657 35.2943 79.081 35.2943C74.2353 35.2943 70.2936 39.2525 70.2936 44.1177V73.5291C70.2936 78.3951 74.2353 82.3532 79.081 82.3532C80.1128 82.3532 81.0891 82.1411 82.0099 81.8115V85.2943C82.0099 86.9171 80.694 88.2355 79.081 88.2355H58.0387C56.8254 84.819 53.6047 82.3532 49.7915 82.3532C44.9465 82.3532 41.0049 86.3113 41.0049 91.1766C41.0049 96.0419 44.9465 100 49.7915 100C53.6047 100 56.8254 97.5334 58.0387 94.1177H79.081C83.926 94.1177 87.8677 90.1596 87.8677 85.2943C87.8677 67.6033 87.8677 55.9456 87.8677 38.2355C87.8677 17.1532 70.786 0 49.7915 0V0Z" fill="#545D49"/>
<path d="M93.7256 41.7183V75.9285C97.127 74.7108 99.5833 71.4767 99.5833 67.6468V50C99.5833 46.1708 97.127 42.9367 93.7256 41.7183Z" fill="#545D49"/>
<path d="M0 50V67.6468C0 71.4767 2.45631 74.7108 5.85775 75.9285V41.7183C2.45631 42.9367 0 46.1708 0 50Z" fill="#545D49"/>
</g>
<defs>
<clipPath id="clip0">
<rect width="99.5833" height="100" fill="white"/>
</clipPath>
</defs>
</svg>
