<svg width="100" height="100" viewBox="0 0 100 100" fill="none" xmlns="http://www.w3.org/2000/svg">
<g clip-path="url(#clip0)">
<path d="M20.0402 80.1728C21.3713 78.5347 22.1715 76.4452 22.1715 74.171C22.1715 68.928 17.9238 64.6626 12.7027 64.6626C7.48159 64.6626 3.23393 68.928 3.23393 74.171C3.23393 76.4452 4.0341 78.5349 5.36525 80.1728C2.12218 82.4864 0 86.2856 0 90.5759V100H25.4058V90.5759C25.4058 86.2856 23.2834 82.4862 20.0402 80.1728Z" fill="#545D49"/>
<path d="M57.1292 15.5102C58.4604 13.8721 59.2606 11.7826 59.2606 9.5084C59.2606 4.26543 55.0129 0 49.7918 0C44.5706 0 40.323 4.26543 40.323 9.5084C40.323 11.7826 41.1232 13.8723 42.4543 15.5102C39.211 17.8236 37.0889 21.623 37.0889 25.9133V35.3375H62.4945V25.9133H62.4947C62.4947 21.623 60.3725 17.8238 57.1292 15.5102Z" fill="#545D49"/>
<path d="M94.2178 80.173C95.5491 78.5349 96.3491 76.4454 96.3491 74.171C96.3491 68.928 92.1015 64.6626 86.8803 64.6626C81.6592 64.6626 77.4116 68.928 77.4116 74.171C77.4116 76.4452 78.2117 78.5349 79.5429 80.1728C76.2996 82.4862 74.1772 86.2856 74.1772 90.5759V100H99.5832V90.5759C99.5832 86.2856 97.4611 82.4864 94.2178 80.173Z" fill="#545D49"/>
<path d="M28.0161 41.2063V74.4313H41.8127L49.7918 81.621L57.7709 74.4311H71.5675V41.2063H28.0161ZM59.8906 60.7485H39.693V54.8891H59.8906V60.7485Z" fill="#545D49"/>
</g>
<defs>
<clipPath id="clip0">
<rect width="99.5833" height="100" fill="white"/>
</clipPath>
</defs>
</svg>
