<svg width="99" height="139" viewBox="0 0 99 139" fill="none" xmlns="http://www.w3.org/2000/svg">
<path d="M17.1922 130.436H13.8193V129.217H21.9548V130.436H18.582V139H17.1922V130.436Z" fill="#14140C"/>
<path d="M34.283 139L32.1593 135.995C31.8938 136.011 31.6908 136.026 31.5425 136.026H29.1143V139H27.709V129.217H31.5425C32.8151 129.217 33.8223 129.52 34.5484 130.125C35.2823 130.731 35.6415 131.562 35.6415 132.625C35.6415 133.379 35.4541 134.023 35.0793 134.551C34.7046 135.079 34.1736 135.467 33.4788 135.708L35.8132 138.992H34.283V139ZM33.5412 134.264C34.0097 133.883 34.2439 133.34 34.2439 132.625C34.2439 131.911 34.0097 131.375 33.5412 130.995C33.0728 130.614 32.3935 130.428 31.5035 130.428H29.1143V134.83H31.5035C32.3935 134.838 33.0728 134.644 33.5412 134.264Z" fill="#14140C"/>
<path d="M48.4067 136.554H43.1756L42.0904 139H40.646L45.1041 129.217H46.4939L50.9598 139H49.4842L48.4067 136.554ZM47.9148 135.436L45.7912 130.645L43.6675 135.436H47.9148Z" fill="#14140C"/>
<path d="M56.644 129.217H60.7899C61.8283 129.217 62.7496 129.419 63.5616 129.83C64.3657 130.242 64.9903 130.816 65.4354 131.554C65.8804 132.291 66.1068 133.146 66.1068 134.108C66.1068 135.071 65.8804 135.917 65.4354 136.663C64.9903 137.401 64.3657 137.975 63.5616 138.387C62.7574 138.798 61.8361 139 60.7899 139H56.644V129.217ZM60.704 137.781C61.5003 137.781 62.203 137.626 62.8042 137.323C63.4054 137.012 63.8739 136.585 64.2018 136.026C64.5297 135.475 64.6936 134.83 64.6936 134.108C64.6936 133.379 64.5297 132.742 64.2018 132.183C63.8739 131.631 63.4054 131.197 62.8042 130.886C62.203 130.576 61.5003 130.428 60.704 130.428H58.0494V137.781H60.704Z" fill="#14140C"/>
<path d="M79.6058 137.781V139H72.4697V129.217H79.4107V130.436H73.8751V133.441H78.8095V134.629H73.8751V137.789H79.6058V137.781Z" fill="#14140C"/>
<path d="M99.0002 64.8335H50.5933V112.973H99.0002V64.8335Z" fill="#545D49"/>
<path d="M48.4069 0H0V48.1399H48.4069V0Z" fill="#545D49"/>
<path d="M99.0002 13.9761H50.5933V62.116H99.0002V13.9761Z" fill="#D8A835"/>
<path d="M48.4069 50.7254H0V98.8653H48.4069V50.7254Z" fill="#D8A835"/>
<path d="M19.9328 33.1466C18.3244 32.2692 17.0596 31.0424 16.1461 29.4818C15.2326 27.9211 14.772 26.1741 14.772 24.2407C14.772 22.3074 15.2326 20.5604 16.1461 18.9997C17.0596 17.4391 18.3244 16.22 19.9484 15.3349C21.5646 14.4575 23.3759 14.0149 25.3825 14.0149C26.8815 14.0149 28.2713 14.2634 29.5439 14.7603C30.8165 15.2572 31.894 15.9871 32.7762 16.9421L31.4177 18.2931C29.8406 16.7014 27.8418 15.9094 25.4371 15.9094C23.8366 15.9094 22.3844 16.2744 21.0727 17.0042C19.761 17.7341 18.7382 18.728 17.9965 19.9936C17.2548 21.2592 16.8878 22.6723 16.8878 24.2485C16.8878 25.8169 17.2548 27.2378 17.9965 28.5035C18.7382 29.7691 19.761 30.7629 21.0727 31.4928C22.3844 32.2227 23.8366 32.5876 25.4371 32.5876C27.8653 32.5876 29.8562 31.7801 31.4177 30.1728L32.7762 31.5238C31.894 32.4789 30.8087 33.2165 29.5283 33.7212C28.2478 34.2259 26.8581 34.4821 25.3512 34.4821C23.3447 34.4666 21.5411 34.024 19.9328 33.1466Z" fill="#F4F4F4"/>
<path d="M23.0088 64.8724H25.1481V84.9824H23.0088V64.8724Z" fill="#F4F4F4"/>
<path d="M83.0494 27.7969V47.9069H80.9413V38.6284H68.2853V47.9069H66.146V27.7969H68.2853V36.7571H80.9413V27.7969H83.0494Z" fill="#F4F4F4"/>
<path d="M80.3166 80.4945C81.7766 81.7213 82.5105 83.4062 82.5105 85.5492C82.5105 87.6922 81.7766 89.3771 80.3166 90.5884C78.8488 91.8074 76.8344 92.413 74.2501 92.413H68.816V98.7644H66.6768V78.6543H74.2423C76.8344 78.6543 78.8566 79.2677 80.3166 80.4945ZM78.7863 89.2373C79.8481 88.3677 80.3712 87.1332 80.3712 85.5492C80.3712 83.9187 79.8403 82.6686 78.7863 81.799C77.7245 80.9293 76.1942 80.4945 74.1954 80.4945H68.8238V90.5496H74.1954C76.1942 90.5496 77.7323 90.1147 78.7863 89.2373Z" fill="#F4F4F4"/>
</svg>
