<svg width="100" height="139" viewBox="0 0 100 139" fill="none" xmlns="http://www.w3.org/2000/svg">
<g clip-path="url(#clip0)">
<path d="M17.3846 130.436H14.0073V129.217H22.1535V130.436H18.7762V139H17.3846V130.436Z" fill="white"/>
<path d="M34.4982 139L32.3717 135.995C32.1059 136.011 31.9026 136.026 31.7541 136.026H29.3227V139H27.9155V129.217H31.7541C33.0284 129.217 34.0369 129.52 34.764 130.125C35.4988 130.731 35.8585 131.562 35.8585 132.625C35.8585 133.379 35.6708 134.023 35.2956 134.551C34.9203 135.079 34.3887 135.467 33.6929 135.708L36.0305 138.992H34.4982V139ZM33.7555 134.264C34.2245 133.883 34.4591 133.34 34.4591 132.625C34.4591 131.911 34.2245 131.375 33.7555 130.995C33.2864 130.614 32.6062 130.428 31.715 130.428H29.3227V134.831H31.715C32.6062 134.838 33.2864 134.644 33.7555 134.264Z" fill="white"/>
<path d="M48.6406 136.554H43.4026L42.3159 139H40.8696L45.3336 129.217H46.7252L51.197 139H49.7194L48.6406 136.554ZM48.1481 135.436L46.0216 130.645L43.8951 135.436H48.1481Z" fill="white"/>
<path d="M56.8882 129.217H61.0395C62.0792 129.217 63.0018 129.419 63.8148 129.83C64.62 130.242 65.2455 130.816 65.6911 131.554C66.1367 132.292 66.3634 133.146 66.3634 134.108C66.3634 135.071 66.1367 135.918 65.6911 136.663C65.2455 137.401 64.62 137.975 63.8148 138.387C63.0096 138.798 62.0871 139 61.0395 139H56.8882V129.217ZM60.9535 137.781C61.7509 137.781 62.4545 137.626 63.0565 137.323C63.6585 137.012 64.1275 136.585 64.4559 136.026C64.7842 135.475 64.9484 134.831 64.9484 134.108C64.9484 133.379 64.7842 132.742 64.4559 132.183C64.1275 131.632 63.6585 131.197 63.0565 130.886C62.4545 130.576 61.7509 130.428 60.9535 130.428H58.2954V137.781H60.9535Z" fill="white"/>
<path d="M79.8804 137.781V139H72.7349V129.217H79.6849V130.436H74.1421V133.441H79.083V134.629H74.1421V137.789H79.8804V137.781Z" fill="white"/>
<path d="M99.3003 64.8335H50.8296V112.973H99.3003V64.8335Z" fill="white"/>
<path d="M48.6406 0H0.169922V48.1399H48.6406V0Z" fill="white"/>
<path d="M99.3003 13.9761H50.8296V62.1159H99.3003V13.9761Z" fill="#D8A835"/>
<path d="M48.6406 50.7253H0.169922V98.8652H48.6406V50.7253Z" fill="#D8A835"/>
<path d="M20.129 33.1466C18.5186 32.2692 17.2521 31.0424 16.3374 29.4818C15.4227 27.9211 14.9614 26.1741 14.9614 24.2407C14.9614 22.3074 15.4227 20.5604 16.3374 18.9997C17.2521 17.439 18.5186 16.22 20.1447 15.3349C21.763 14.4575 23.5767 14.0149 25.5859 14.0149C27.0869 14.0149 28.4785 14.2634 29.7528 14.7603C31.0271 15.2572 32.106 15.9871 32.9894 16.9421L31.6291 18.2931C30.0499 16.7014 28.0485 15.9094 25.6406 15.9094C24.038 15.9094 22.5838 16.2744 21.2704 17.0042C19.957 17.7341 18.9329 18.7279 18.1902 19.9936C17.4475 21.2592 17.0801 22.6723 17.0801 24.2485C17.0801 25.8169 17.4475 27.2378 18.1902 28.5034C18.9329 29.7691 19.957 30.7629 21.2704 31.4928C22.5838 32.2226 24.038 32.5876 25.6406 32.5876C28.072 32.5876 30.0655 31.7801 31.6291 30.1728L32.9894 31.5238C32.106 32.4789 31.0193 33.2165 29.7372 33.7212C28.455 34.2259 27.0635 34.4821 25.5546 34.4821C23.5454 34.4666 21.7395 34.024 20.129 33.1466Z" fill="#545D49"/>
<path d="M23.209 64.8723H25.3511V84.9824H23.209V64.8723Z" fill="#F4F4F4"/>
<path d="M83.3285 27.7969V47.9069H81.2177V38.6283H68.5449V47.9069H66.4028V27.7969H68.5449V36.7571H81.2177V27.7969H83.3285Z" fill="#F4F4F4"/>
<path d="M80.5924 80.4945C82.0543 81.7213 82.7892 83.4062 82.7892 85.5492C82.7892 87.6922 82.0543 89.3771 80.5924 90.5883C79.1226 91.8073 77.1056 92.413 74.5179 92.413H69.0767V98.7643H66.9346V78.6543H74.5101C77.1056 78.6543 79.1304 79.2677 80.5924 80.4945ZM79.0601 89.2373C80.1233 88.3677 80.6471 87.1331 80.6471 85.5492C80.6471 83.9186 80.1155 82.6685 79.0601 81.7989C77.9968 80.9293 76.4645 80.4945 74.4632 80.4945H69.0845V90.5495H74.4632C76.4645 90.5495 78.0047 90.1147 79.0601 89.2373Z" fill="#545D49"/>
</g>
<defs>
<clipPath id="clip0">
<rect width="99.1304" height="139" fill="white" transform="translate(0.169922)"/>
</clipPath>
</defs>
</svg>
